<svg width="39" height="39" viewBox="0 0 39 39" fill="none" xmlns="http://www.w3.org/2000/svg">
<g clip-path="url(#clip0_127_144)">
<path d="M28.5998 28.6H25.9998V26H28.5998V28.6ZM20.7998 28.6H23.3998V26H20.7998V28.6ZM33.7998 28.6H31.1998V26H33.7998V28.6Z" fill="#ED2438"/>
<path fill-rule="evenodd" clip-rule="evenodd" d="M7.8 15.6V9.1C7.8 7.90497 8.03538 6.72164 8.4927 5.61758C8.95001 4.51352 9.62032 3.51034 10.4653 2.66533C11.3103 1.82032 12.3135 1.15001 13.4176 0.692696C14.5216 0.235378 15.705 0 16.9 0C18.095 0 19.2784 0.235378 20.3824 0.692696C21.4865 1.15001 22.4897 1.82032 23.3347 2.66533C24.1797 3.51034 24.85 4.51352 25.3073 5.61758C25.7646 6.72164 26 7.90497 26 9.1V15.6H29.9C30.9343 15.6 31.9263 16.0109 32.6577 16.7423C33.3891 17.4737 33.8 18.4657 33.8 19.5V20.93C35.2694 21.2284 36.5904 22.0255 37.5393 23.1865C38.4882 24.3474 39.0065 25.8006 39.0065 27.3C39.0065 28.7994 38.4882 30.2526 37.5393 31.4135C36.5904 32.5745 35.2694 33.3716 33.8 33.67V35.1C33.8 36.1343 33.3891 37.1263 32.6577 37.8577C31.9263 38.5891 30.9343 39 29.9 39H3.9C2.86566 39 1.87368 38.5891 1.14228 37.8577C0.410892 37.1263 0 36.1343 0 35.1L0 19.5C0 18.4657 0.410892 17.4737 1.14228 16.7423C1.87368 16.0109 2.86566 15.6 3.9 15.6H7.8ZM10.4 9.1C10.4 7.37609 11.0848 5.72279 12.3038 4.50381C13.5228 3.28482 15.1761 2.6 16.9 2.6C18.6239 2.6 20.2772 3.28482 21.4962 4.50381C22.7152 5.72279 23.4 7.37609 23.4 9.1V15.6H10.4V9.1ZM22.1 23.4C21.0657 23.4 20.0737 23.8109 19.3423 24.5423C18.6109 25.2737 18.2 26.2657 18.2 27.3C18.2 28.3343 18.6109 29.3263 19.3423 30.0577C20.0737 30.7891 21.0657 31.2 22.1 31.2H32.5C33.5343 31.2 34.5263 30.7891 35.2577 30.0577C35.9891 29.3263 36.4 28.3343 36.4 27.3C36.4 26.2657 35.9891 25.2737 35.2577 24.5423C34.5263 23.8109 33.5343 23.4 32.5 23.4H22.1Z" fill="#ED2438"/>
</g>
<defs>
<clipPath id="clip0_127_144">
<rect width="39" height="39" fill="white"/>
</clipPath>
</defs>
</svg>
