<svg width="44" height="44" viewBox="0 0 44 44" fill="none" xmlns="http://www.w3.org/2000/svg">
<path fill-rule="evenodd" clip-rule="evenodd" d="M10.8 15.6V9.1C10.8 7.90497 11.0354 6.72164 11.4927 5.61758C11.95 4.51352 12.6203 3.51034 13.4653 2.66533C14.3103 1.82032 15.3135 1.15001 16.4176 0.692696C17.5216 0.235378 18.705 0 19.9 0C21.095 0 22.2784 0.235378 23.3824 0.692696C24.4865 1.15001 25.4897 1.82032 26.3347 2.66533C27.1797 3.51034 27.85 4.51352 28.3073 5.61758C28.7646 6.72164 29 7.90497 29 9.1V15.6H32.9C33.9343 15.6 34.9263 16.0109 35.6577 16.7423C36.3891 17.4737 36.8 18.4657 36.8 19.5V20.93C38.2694 21.2284 39.5904 22.0255 40.5393 23.1865C41.4882 24.3474 42.0065 25.8006 42.0065 27.3C42.0065 28.7994 41.4882 30.2526 40.5393 31.4135C39.5904 32.5745 38.2694 33.3716 36.8 33.67V35.1C36.8 36.1343 36.3891 37.1263 35.6577 37.8577C34.9263 38.5891 33.9343 39 32.9 39H6.9C5.86566 39 4.87368 38.5891 4.14228 37.8577C3.41089 37.1263 3 36.1343 3 35.1L3 19.5C3 18.4657 3.41089 17.4737 4.14228 16.7423C4.87368 16.0109 5.86566 15.6 6.9 15.6H10.8ZM13.4 9.1C13.4 7.37609 14.0848 5.72279 15.3038 4.50381C16.5228 3.28482 18.1761 2.6 19.9 2.6C21.6239 2.6 23.2772 3.28482 24.4962 4.50381C25.7152 5.72279 26.4 7.37609 26.4 9.1V15.6H13.4V9.1ZM25.1 23.4C24.0657 23.4 23.0737 23.8109 22.3423 24.5423C21.6109 25.2737 21.2 26.2657 21.2 27.3C21.2 28.3343 21.6109 29.3263 22.3423 30.0577C23.0737 30.7891 24.0657 31.2 25.1 31.2H35.5C36.5343 31.2 37.5263 30.7891 38.2577 30.0577C38.9891 29.3263 39.4 28.3343 39.4 27.3C39.4 26.2657 38.9891 25.2737 38.2577 24.5423C37.5263 23.8109 36.5343 23.4 35.5 23.4H25.1Z" fill="#ED2438"/>
</svg>
